<svg width="211" height="31" viewBox="0 0 211 31" fill="none" xmlns="http://www.w3.org/2000/svg">
<path d="M17.1612 4.88926L19.3612 9.28926C19.6612 9.90176 20.4612 10.4893 21.1362 10.6018L25.1237 11.2643C27.6737 11.6893 28.2737 13.5393 26.4362 15.3643L23.3362 18.4643C22.8112 18.9893 22.5237 20.0018 22.6862 20.7268L23.5737 24.5643C24.2737 27.6018 22.6612 28.7768 19.9737 27.1893L16.2362 24.9768C15.5612 24.5768 14.4487 24.5768 13.7612 24.9768L10.0237 27.1893C7.34867 28.7768 5.72367 27.5893 6.42367 24.5643L7.31117 20.7268C7.47367 20.0018 7.18617 18.9893 6.66117 18.4643L3.56117 15.3643C1.73617 13.5393 2.32367 11.6893 4.87367 11.2643L8.86117 10.6018C9.52366 10.4893 10.3237 9.90176 10.6237 9.28926L12.8237 4.88926C14.0237 2.50176 15.9737 2.50176 17.1612 4.88926Z" fill="#EECC1B" stroke="#292D32" stroke-width="1.5" stroke-linecap="round" stroke-linejoin="round"/>
<path d="M51.6612 4.89219L53.8612 9.29219C54.1612 9.90469 54.9612 10.4922 55.6362 10.6047L59.6237 11.2672C62.1737 11.6922 62.7737 13.5422 60.9362 15.3672L57.8362 18.4672C57.3112 18.9922 57.0237 20.0047 57.1862 20.7297L58.0737 24.5672C58.7737 27.6047 57.1612 28.7797 54.4737 27.1922L50.7362 24.9797C50.0612 24.5797 48.9487 24.5797 48.2612 24.9797L44.5237 27.1922C41.8487 28.7797 40.2237 27.5922 40.9237 24.5672L41.8112 20.7297C41.9737 20.0047 41.6862 18.9922 41.1612 18.4672L38.0612 15.3672C36.2362 13.5422 36.8237 11.6922 39.3737 11.2672L43.3612 10.6047C44.0237 10.4922 44.8237 9.90469 45.1237 9.29219L47.3237 4.89219C48.5237 2.50469 50.4737 2.50469 51.6612 4.89219Z" fill="#EECC1B" stroke="#292D32" stroke-width="1.5" stroke-linecap="round" stroke-linejoin="round"/>
<path d="M86.1651 4.88926L88.3651 9.28926C88.6651 9.90176 89.4651 10.4893 90.1401 10.6018L94.1276 11.2643C96.6776 11.6893 97.2776 13.5393 95.4401 15.3643L92.3401 18.4643C91.8151 18.9893 91.5276 20.0018 91.6901 20.7268L92.5776 24.5643C93.2776 27.6018 91.6651 28.7768 88.9776 27.1893L85.2401 24.9768C84.5651 24.5768 83.4526 24.5768 82.7651 24.9768L79.0276 27.1893C76.3526 28.7768 74.7276 27.5893 75.4276 24.5643L76.3151 20.7268C76.4776 20.0018 76.1901 18.9893 75.6651 18.4643L72.5651 15.3643C70.7401 13.5393 71.3276 11.6893 73.8776 11.2643L77.8651 10.6018C78.5276 10.4893 79.3276 9.90176 79.6276 9.28926L81.8276 4.88926C83.0276 2.50176 84.9776 2.50176 86.1651 4.88926Z" fill="#EECC1B" stroke="#292D32" stroke-width="1.5" stroke-linecap="round" stroke-linejoin="round"/>
<path d="M157.165 5.38926L159.365 9.78926C159.665 10.4018 160.465 10.9893 161.14 11.1018L165.128 11.7643C167.678 12.1893 168.278 14.0393 166.44 15.8643L163.34 18.9643C162.815 19.4893 162.528 20.5018 162.69 21.2268L163.578 25.0643C164.278 28.1018 162.665 29.2768 159.978 27.6893L156.24 25.4768C155.565 25.0768 154.453 25.0768 153.765 25.4768L150.028 27.6893C147.353 29.2768 145.728 28.0893 146.428 25.0643L147.315 21.2268C147.478 20.5018 147.19 19.4893 146.665 18.9643L143.565 15.8643C141.74 14.0393 142.328 12.1893 144.878 11.7643L148.865 11.1018C149.528 10.9893 150.328 10.4018 150.628 9.78926L152.828 5.38926C154.028 3.00176 155.978 3.00176 157.165 5.38926Z" fill="#DFDDE8" stroke="#292D32" stroke-width="1.5" stroke-linecap="round" stroke-linejoin="round"/>
<path d="M123.165 5.38926L125.365 9.78926C125.665 10.4018 126.465 10.9893 127.14 11.1018L131.128 11.7643C133.678 12.1893 134.278 14.0393 132.44 15.8643L129.34 18.9643C128.815 19.4893 128.528 20.5018 128.69 21.2268L129.578 25.0643C130.278 28.1018 128.665 29.2768 125.978 27.6893L122.24 25.4768C121.565 25.0768 120.453 25.0768 119.765 25.4768L116.028 27.6893C113.353 29.2768 111.728 28.0893 112.428 25.0643L113.315 21.2268C113.478 20.5018 113.19 19.4893 112.665 18.9643L109.565 15.8643C107.74 14.0393 108.328 12.1893 110.878 11.7643L114.865 11.1018C115.528 10.9893 116.328 10.4018 116.628 9.78926L118.828 5.38926C120.028 3.00176 121.978 3.00176 123.165 5.38926Z" fill="#EECC1B" stroke="#292D32" stroke-width="1.5" stroke-linecap="round" stroke-linejoin="round"/>
<path d="M177.964 19.04V16.68L184.024 7.54L185.364 8.6L179.704 17.16L179.884 17.52H189.324V19.04H177.964ZM185.584 22.5V12.16H187.384V22.5H185.584ZM191.296 22.5V20.06H193.616V22.5H191.296ZM202.51 22.86C201.417 22.86 200.484 22.6733 199.71 22.3C198.95 21.9133 198.33 21.3933 197.85 20.74C197.384 20.0867 197.044 19.3333 196.83 18.48C196.617 17.6133 196.51 16.7 196.51 15.74V14.66C196.51 13.3133 196.717 12.1 197.13 11.02C197.557 9.94 198.21 9.08667 199.09 8.46C199.984 7.82 201.124 7.5 202.51 7.5C203.897 7.5 205.03 7.82 205.91 8.46C206.79 9.08667 207.437 9.94 207.85 11.02C208.277 12.1 208.49 13.3133 208.49 14.66V15.74C208.49 16.7 208.384 17.6133 208.17 18.48C207.957 19.3333 207.61 20.0867 207.13 20.74C206.664 21.3933 206.05 21.9133 205.29 22.3C204.53 22.6733 203.604 22.86 202.51 22.86ZM202.51 21.1C203.897 21.1 204.91 20.6333 205.55 19.7C206.204 18.7533 206.53 17.26 206.53 15.22C206.53 13.0867 206.197 11.56 205.53 10.64C204.877 9.72 203.87 9.26 202.51 9.26C201.137 9.26 200.117 9.72 199.45 10.64C198.797 11.56 198.47 13.0733 198.47 15.18C198.47 17.2333 198.797 18.7333 199.45 19.68C200.104 20.6267 201.124 21.1 202.51 21.1Z" fill="black"/>
</svg>