<svg width="32" height="32" viewBox="0 0 32 32" fill="none" xmlns="http://www.w3.org/2000/svg">
<path d="M4 7V23C4 23.5304 4.21071 24.0391 4.58579 24.4142C4.96086 24.7893 5.46957 25 6 25H26C26.5304 25 27.0391 24.7893 27.4142 24.4142C27.7893 24.0391 28 23.5304 28 23V7H4ZM4 5H28C28.5304 5 29.0391 5.21071 29.4142 5.58579C29.7893 5.96086 30 6.46957 30 7V23C30 24.0609 29.5786 25.0783 28.8284 25.8284C28.0783 26.5786 27.0609 27 26 27H6C4.93913 27 3.92172 26.5786 3.17157 25.8284C2.42143 25.0783 2 24.0609 2 23V7C2 6.46957 2.21071 5.96086 2.58579 5.58579C2.96086 5.21071 3.46957 5 4 5Z" fill="#4E4E4E"/>
<path d="M28.25 7L20.516 15.84C19.9528 16.4838 19.2585 16.9997 18.4797 17.3532C17.7008 17.7067 16.8553 17.8896 16 17.8896C15.1447 17.8896 14.2992 17.7067 13.5203 17.3532C12.7415 16.9997 12.0472 16.4838 11.484 15.84L3.75 7H28.25ZM6.408 7L12.988 14.522C13.3634 14.9513 13.8263 15.2954 14.3457 15.5311C14.865 15.7668 15.4287 15.8888 15.999 15.8888C16.5693 15.8888 17.133 15.7668 17.6523 15.5311C18.1717 15.2954 18.6346 14.9513 19.01 14.522L25.592 7H6.408Z" fill="#4E4E4E"/>
</svg>
