<svg width="15" height="15" viewBox="0 0 15 15" fill="none" xmlns="http://www.w3.org/2000/svg">
<path d="M8.58131 2.19365L9.68131 4.39365C9.83131 4.6999 10.2313 4.99365 10.5688 5.0499L12.5626 5.38115C13.8376 5.59365 14.1376 6.51865 13.2188 7.43115L11.6688 8.98115C11.4063 9.24365 11.2626 9.7499 11.3438 10.1124L11.7876 12.0312C12.1376 13.5499 11.3313 14.1374 9.98756 13.3437L8.11881 12.2374C7.78131 12.0374 7.22507 12.0374 6.88132 12.2374L5.01257 13.3437C3.67507 14.1374 2.86257 13.5437 3.21257 12.0312L3.65632 10.1124C3.73757 9.7499 3.59382 9.24365 3.33132 8.98115L1.78132 7.43115C0.868815 6.51865 1.16257 5.59365 2.43757 5.38115L4.43131 5.0499C4.76256 4.99365 5.16256 4.6999 5.31256 4.39365L6.41257 2.19365C7.01257 0.999902 7.98756 0.999902 8.58131 2.19365Z" fill="#EECC1B" stroke="#292D32" stroke-width="1.5" stroke-linecap="round" stroke-linejoin="round"/>
</svg>