<svg width="32" height="32" viewBox="0 0 32 32" fill="none" xmlns="http://www.w3.org/2000/svg">
<path d="M15.9993 9.83594C14.3642 9.83594 12.796 10.4855 11.6398 11.6417C10.4835 12.7979 9.83398 14.3661 9.83398 16.0013C9.83398 17.6364 10.4835 19.2046 11.6398 20.3608C12.796 21.517 14.3642 22.1666 15.9993 22.1666C17.6345 22.1666 19.2026 21.517 20.3589 20.3608C21.5151 19.2046 22.1646 17.6364 22.1646 16.0013C22.1646 14.3661 21.5151 12.7979 20.3589 11.6417C19.2026 10.4855 17.6345 9.83594 15.9993 9.83594ZM15.9993 20.0053C14.937 20.0053 13.9183 19.5833 13.1671 18.8321C12.416 18.081 11.994 17.0622 11.994 15.9999C11.994 14.9377 12.416 13.9189 13.1671 13.1677C13.9183 12.4166 14.937 11.9946 15.9993 11.9946C17.0616 11.9946 18.0804 12.4166 18.8315 13.1677C19.5827 13.9189 20.0047 14.9377 20.0047 15.9999C20.0047 17.0622 19.5827 18.081 18.8315 18.8321C18.0804 19.5833 17.0616 20.0053 15.9993 20.0053Z" fill="#4E4E4E"/>
<path d="M22.409 11.0465C23.2028 11.0465 23.8463 10.403 23.8463 9.60921C23.8463 8.81539 23.2028 8.17188 22.409 8.17188C21.6152 8.17188 20.9717 8.81539 20.9717 9.60921C20.9717 10.403 21.6152 11.0465 22.409 11.0465Z" fill="#4E4E4E"/>
<path d="M27.3776 8.14719C27.0689 7.3501 26.5972 6.62624 25.9927 6.02194C25.3882 5.41764 24.6641 4.94622 23.8669 4.63786C22.934 4.28767 21.9485 4.09831 20.9523 4.07786C19.6683 4.02186 19.2616 4.00586 16.0056 4.00586C12.7496 4.00586 12.3323 4.00586 11.0589 4.07786C10.0634 4.09727 9.07861 4.28666 8.14693 4.63786C7.34951 4.94586 6.62528 5.41715 6.02071 6.0215C5.41613 6.62584 4.94457 7.34989 4.63626 8.14719C4.286 9.08001 4.09708 10.0656 4.0776 11.0619C4.02026 12.3445 4.00293 12.7512 4.00293 16.0085C4.00293 19.2645 4.00293 19.6792 4.0776 20.9552C4.0976 21.9525 4.2856 22.9365 4.63626 23.8712C4.94543 24.6682 5.41746 25.392 6.02218 25.9962C6.6269 26.6005 7.35101 27.072 8.14826 27.3805C9.07817 27.7448 10.0634 27.9477 11.0616 27.9805C12.3456 28.0365 12.7523 28.0539 16.0083 28.0539C19.2643 28.0539 19.6816 28.0539 20.9549 27.9805C21.9511 27.9603 22.9366 27.7714 23.8696 27.4219C24.6666 27.1128 25.3904 26.641 25.9949 26.0365C26.5994 25.432 27.0712 24.7082 27.3803 23.9112C27.7309 22.9779 27.9189 21.9939 27.9389 20.9965C27.9963 19.7139 28.0136 19.3072 28.0136 16.0499C28.0136 12.7925 28.0136 12.3792 27.9389 11.1032C27.9234 10.0929 27.7335 9.09286 27.3776 8.14719ZM25.7536 20.8565C25.745 21.6249 25.6047 22.3862 25.3389 23.1072C25.1387 23.6257 24.8322 24.0965 24.439 24.4894C24.0459 24.8823 23.5749 25.1886 23.0563 25.3885C22.3432 25.6531 21.5901 25.7934 20.8296 25.8032C19.5629 25.8619 19.2056 25.8765 15.9576 25.8765C12.7069 25.8765 12.3749 25.8765 11.0843 25.8032C10.3242 25.7939 9.57136 25.6536 8.85893 25.3885C8.33851 25.1898 7.8656 24.8841 7.47078 24.4911C7.07597 24.0982 6.76804 23.6267 6.56693 23.1072C6.30486 22.3939 6.16468 21.6416 6.15226 20.8819C6.09493 19.6152 6.0816 19.2579 6.0816 16.0099C6.0816 12.7605 6.0816 12.4285 6.15226 11.1365C6.16088 10.3686 6.30114 9.60775 6.56693 8.88719C6.9736 7.83519 7.80693 7.00719 8.85893 6.60453C9.57172 6.34071 10.3243 6.20048 11.0843 6.18986C12.3523 6.13253 12.7083 6.11653 15.9576 6.11653C19.2069 6.11653 19.5403 6.11653 20.8296 6.18986C21.5901 6.19901 22.3434 6.33929 23.0563 6.60453C23.5748 6.80489 24.0458 7.11146 24.4389 7.50457C24.832 7.89767 25.1386 8.36862 25.3389 8.88719C25.601 9.60046 25.7412 10.3527 25.7536 11.1125C25.8109 12.3805 25.8256 12.7365 25.8256 15.9859C25.8256 19.2339 25.8256 19.5832 25.7683 20.8579H25.7536V20.8565Z" fill="#4E4E4E"/>
</svg>