<svg width="32" height="32" viewBox="0 0 32 32" fill="none" xmlns="http://www.w3.org/2000/svg">
<path d="M28 9.5C26.4087 9.5 24.8826 8.86786 23.7574 7.74264C22.6321 6.61742 22 5.0913 22 3.5C22 3.23478 21.8946 2.98043 21.7071 2.79289C21.5196 2.60536 21.2652 2.5 21 2.5H16C15.7348 2.5 15.4804 2.60536 15.2929 2.79289C15.1054 2.98043 15 3.23478 15 3.5V19.5C14.999 19.947 14.8782 20.3856 14.6502 20.77C14.4221 21.1545 14.0952 21.4707 13.7034 21.6859C13.3116 21.9011 12.8692 22.0072 12.4225 21.9934C11.9757 21.9795 11.5408 21.8461 11.1631 21.6071C10.7854 21.368 10.4787 21.0321 10.2749 20.6342C10.0711 20.2364 9.97774 19.7912 10.0045 19.345C10.0312 18.8988 10.1771 18.4679 10.427 18.0973C10.6768 17.7266 11.0214 17.4297 11.425 17.2375C11.597 17.1584 11.7427 17.0315 11.8447 16.8719C11.9466 16.7124 12.0005 16.5269 12 16.3375V11.1375C12.0025 10.9893 11.9711 10.8424 11.9083 10.7081C11.8455 10.5738 11.7529 10.4556 11.6375 10.3625C11.5256 10.2703 11.3949 10.2035 11.2546 10.1668C11.1143 10.1301 10.9677 10.1244 10.825 10.15C9.04599 10.4687 7.39478 11.2882 6.0652 12.5124C4.73561 13.7366 3.78282 15.3146 3.31865 17.0613C2.85448 18.808 2.8982 20.6509 3.44467 22.3736C3.99114 24.0964 5.01769 25.6275 6.40383 26.7872C7.78997 27.947 9.47817 28.6873 11.2703 28.9212C13.0624 29.1552 14.8841 28.8731 16.5215 28.108C18.1589 27.3429 19.5441 26.1267 20.5145 24.6019C21.4849 23.0772 22.0002 21.3073 22 19.5V15.0375C23.8521 16.0036 25.9111 16.5055 28 16.5C28.2652 16.5 28.5196 16.3946 28.7071 16.2071C28.8946 16.0196 29 15.7652 29 15.5V10.5C29 10.2348 28.8946 9.98043 28.7071 9.79289C28.5196 9.60536 28.2652 9.5 28 9.5ZM27 14.45C25.048 14.2767 23.1785 13.5816 21.5875 12.4375C21.437 12.3336 21.2611 12.2724 21.0786 12.2604C20.8961 12.2484 20.7138 12.2861 20.551 12.3694C20.3882 12.4528 20.251 12.5786 20.154 12.7337C20.057 12.8887 20.0037 13.0671 20 13.25V19.5C19.9993 20.8748 19.6207 22.223 18.9056 23.3972C18.1904 24.5714 17.1663 25.5264 15.9451 26.158C14.7239 26.7895 13.3527 27.0732 11.9811 26.9781C10.6096 26.883 9.2906 26.4127 8.16827 25.6187C7.04594 24.8246 6.16346 23.7373 5.61727 22.4757C5.07108 21.214 4.88219 19.8265 5.07125 18.4647C5.26031 17.1029 5.82004 15.8193 6.68928 14.7542C7.55851 13.689 8.7038 12.8833 10 12.425V15.7625C9.35343 16.1945 8.82984 16.7867 8.48029 17.4813C8.13074 18.1759 7.96715 18.9493 8.00547 19.7259C8.0438 20.5026 8.28273 21.2561 8.69897 21.9129C9.11521 22.5698 9.69456 23.1075 10.3805 23.4738C11.0665 23.84 11.8356 24.0223 12.613 24.0027C13.3904 23.9832 14.1494 23.7626 14.8161 23.3623C15.4828 22.9621 16.0344 22.3959 16.4172 21.719C16.7999 21.0421 17.0007 20.2776 17 19.5V4.5H20.0625C20.2866 6.26168 21.0895 7.899 22.3453 9.15473C23.601 10.4105 25.2383 11.2134 27 11.4375V14.45Z" fill="#4E4E4E"/>
</svg>
