<svg width="32" height="32" viewBox="0 0 32 32" fill="none" xmlns="http://www.w3.org/2000/svg">
<path d="M25.249 6.5109C24.3664 6.99198 23.4183 7.31703 22.4216 7.46396C23.45 6.70696 24.2195 5.51554 24.5863 4.11201C23.62 4.81801 22.5625 5.31496 21.4597 5.58125C20.7181 4.60721 19.7358 3.96161 18.6654 3.74467C17.5949 3.52772 16.4962 3.75158 15.5398 4.38148C14.5833 5.01138 13.8227 6.01209 13.376 7.22823C12.9293 8.44438 12.8215 9.80791 13.0693 11.1072C11.1115 10.9862 9.19613 10.3602 7.44766 9.26983C5.69918 8.17941 4.15663 6.64893 2.92012 4.77772C2.49733 5.67486 2.25422 6.71503 2.25422 7.82281C2.25375 8.82007 2.45339 9.80205 2.83544 10.6816C3.21748 11.5612 3.77011 12.3112 4.4443 12.865C3.66242 12.8344 2.89779 12.5745 2.21405 12.107V12.185C2.21398 13.5837 2.60729 14.9394 3.32726 16.0219C4.04723 17.1045 5.0495 17.8474 6.16402 18.1244C5.4387 18.3659 4.67825 18.4014 3.94012 18.2284C4.25457 19.4319 4.86709 20.4843 5.69194 21.2383C6.51678 21.9923 7.51265 22.4101 8.54014 22.4333C6.79593 24.1176 4.64184 25.0312 2.4244 25.0272C2.0316 25.0274 1.63913 24.9991 1.24902 24.9427C3.49986 26.7229 6.11999 27.6677 8.79593 27.6641C17.8543 27.6641 22.8063 18.4351 22.8063 10.431C22.8063 10.171 22.801 9.90835 22.7915 9.64831C23.7547 8.79144 24.5862 7.73036 25.2469 6.5148L25.249 6.5109Z" fill="#4E4E4E"/>
</svg>
