<svg width="32" height="32" viewBox="0 0 32 32" fill="none" xmlns="http://www.w3.org/2000/svg">
<g clip-path="url(#clip0_1453_4398)">
<path d="M31.3332 8.67545C31.152 8.02909 30.799 7.44391 30.3118 6.98212C29.8109 6.50612 29.1969 6.16563 28.5278 5.99278C26.0238 5.33278 15.9918 5.33278 15.9918 5.33278C11.8096 5.2852 7.62842 5.49448 3.47185 5.95945C2.80277 6.14507 2.18993 6.49317 1.68785 6.97278C1.19451 7.44745 0.83718 8.03278 0.650513 8.67412C0.202104 11.0898 -0.0157643 13.5426 -0.000153652 15.9995C-0.0161537 18.4541 0.20118 20.9061 0.650513 23.3248C0.83318 23.9635 1.18918 24.5461 1.68385 25.0168C2.17851 25.4875 2.79451 25.8275 3.47185 26.0075C6.00918 26.6661 15.9918 26.6661 15.9918 26.6661C20.1794 26.7138 24.3659 26.5045 28.5278 26.0395C29.1969 25.8666 29.8109 25.5261 30.3118 25.0501C30.7989 24.5884 31.1514 24.0032 31.3318 23.3568C31.792 20.9421 32.0157 18.4882 31.9998 16.0301C32.0345 13.5616 31.811 11.0962 31.3332 8.67412V8.67545ZM12.8025 20.5648V11.4355L21.1492 16.0008L12.8025 20.5648Z" fill="#4E4E4E"/>
</g>
<defs>
<clipPath id="clip0_1453_4398">
<rect width="32" height="32" fill="white"/>
</clipPath>
</defs>
</svg>
